# xmcd
#
# Track frame offsets:
#	150
#	11877
#	29787
#	44367
#	53772
#	66935
#	77907
#	91220
#	106210
#	116345
#	126572
#	137062
#	150067
#	160937
#	178825
#	201645
#	224327
#	243722
#	255202
#	265267
#
# Disc length: 3742 seconds
#
# Revision: 0
# Processed by: cddbd v1.5PL3 Copyright (c) Steve Scherf et al.
# Submitted via: dBpowerAMP V4.0
#
DISCID=220e9c14
DTITLE=Kåre Virud - Sjuende sønn (1974-92)
DYEAR=1900
DGENRE=Blues
TTITLE0=Arbeidsløs
TTITLE1=Ville bare se byen din
TTITLE2=Gravskrift 1919
TTITLE3=Sommerferie blues
TTITLE4=Riksvei 73
TTITLE5=Ei ny tid er i emning
TTITLE6=Kjærlighet minus null
TTITLE7=Showet er over
TTITLE8=Barbeint engel
TTITLE9=Ola e god
TTITLE10=Ola Tung's kafe
TTITLE11=Oslo blues
TTITLE12=Jenta fra nord
TTITLE13=Stort sett Elisabet
TTITLE14=Det ække mei kjei
TTITLE15=Når som helst nå
TTITLE16=Kjære rikstelefondame
TTITLE17=Sjuende sønn
TTITLE18=Østbanen
TTITLE19=Sad is the lonely
EXTD=
EXTT0=
EXTT1=
EXTT2=
EXTT3=
EXTT4=
EXTT5=
EXTT6=
EXTT7=
EXTT8=
EXTT9=
EXTT10=
EXTT11=
EXTT12=
EXTT13=
EXTT14=
EXTT15=
EXTT16=
EXTT17=
EXTT18=
EXTT19=
PLAYORDER=
